#!OML:ASF C:\ViconDB\ViconDB\414\Spring2016\041811\Spring2016.ASF
:FULLY-SPECIFIED
:DEGREES
417
root 12.0395 17.4312 -26.2149 -176.938 -9.81527 -166.244
lowerback -2.67303 1.62815 -1.98242
upperback 0.08533 2.2005 1.45088
thorax 1.45345 1.07558 2.68391
lowerneck -16.3551 4.70414 -0.0918376
upperneck 24.0426 1.22036 15.0422
head 10.3347 1.78901 5.50596
rclavicle -9.74045e-015 1.59028e-014
rhumerus -96.1404 37.7559 -129.074
rradius 86.3978
rwrist 18.1218
rhand -48.5978 -6.95591
rfingers 7.12502
rthumb -21.2427 -35.8119
lclavicle -9.74045e-015 1.59028e-014
lhumerus -78.3869 -43.2229 114.808
lradius 81.4276
lwrist -36.2055
lhand -39.9748 -2.89366
lfingers 7.12502
lthumb -12.9434 26.6849
rfemur 321.728 -234.558 18.4959
rtibia 32.0996
rfoot -63.4233 -48.416
rtoes 3.18055e-015
lfemur -46.3113 -9.36366 1.15805
ltibia 31.5082
lfoot -1.52708 -2.47191
ltoes 1.27222e-014
418
root 11.9989 17.4364 -26.4403 -176.856 -9.67648 -166.728
lowerback -2.59216 1.67623 -2.44596
upperback 0.00999585 2.2855 1.21881
thorax 1.31714 1.1205 2.70371
lowerneck -16.1968 4.78155 0.0493119
upperneck 23.959 1.31507 15.0105
head 10.2681 1.83331 5.47011
rclavicle -1.51076e-014 1.74931e-014
rhumerus -96.0814 37.5556 -129.25
rradius 86.064
rwrist 18.4853
rhand -48.8943 -7.86245
rfingers 7.12502
rthumb -21.5275 -36.6861
lclavicle -1.51076e-014 1.74931e-014
lhumerus -77.8292 -43.135 114.166
lradius 81.524
lwrist -36.5767
lhand -39.2683 -3.56519
lfingers 7.12502
lthumb -12.2623 26.0553
rfemur 322.415 -231.231 18.8808
rtibia 31.5759
rfoot -59.1179 -49.1691
rtoes -9.54166e-015
lfemur -46.4316 -10.0388 0.722107
ltibia 32.8545
lfoot -1.21578 -3.40333
ltoes -3.49861e-014
419
root 11.9612 17.4455 -26.6646 -176.744 -9.53544 -167.343
lowerback -2.52356 1.6743 -3.14718
upperback -0.0580377 2.30734 1.00698
thorax 1.18873 1.13215 2.87596
lowerneck -16.0317 4.95239 0.333071
upperneck 23.9113 1.54826 14.8166
head 10.2052 1.94031 5.36934
rclavicle -5.00937e-014 1.11319e-014
rhumerus -95.9151 37.396 -129.258
rradius 85.6973
rwrist 18.864
rhand -49.1536 -8.19866
rfingers 7.12502
rthumb -21.7766 -36.9936
lclavicle -5.00937e-014 1.11319e-014
lhumerus -77.21 -42.991 113.398
lradius 81.3703
lwrist -37.9867
lhand -39.1057 -3.59267
lfingers 7.12502
lthumb -12.1056 26.0371
rfemur 323.2 -227.464 19.3468
rtibia 31.1414
rfoot -54.4145 -49.804
rtoes 1.39944e-013
lfemur -46.5417 -10.4401 -0.0482617
ltibia 34.2119
lfoot -1.10986 -3.80297
ltoes 8.42847e-014
420
root 11.9243 17.4569 -26.8928 -176.684 -9.48846 -167.618
lowerback -2.45145 1.67213 -3.5909
upperback -0.160592 2.31393 0.965648
thorax 1.02671 1.13808 3.07776
lowerneck -15.9055 5.03486 0.306809
upperneck 24.0154 1.65369 14.8254
head 10.2068 1.98217 5.39014
rclavicle 4.17448e-015 7.95139e-015
rhumerus -95.7002 37.124 -129.053
rradius 85.3569
rwrist 18.9229
rhand -49.4346 -7.43161
rfingers 7.12502
rthumb -22.0463 -36.195
lclavicle 4.17448e-015 7.95139e-015
lhumerus -77.0437 -42.9701 113.219
lradius 81.4487
lwrist -38.1971
lhand -38.8143 -3.69618
lfingers 7.12502
lthumb -11.8246 25.95
rfemur 323.72 -224.087 19.9544
rtibia 30.7516
rfoot -50.0263 -50.3714
rtoes -7.63333e-014
lfemur -46.5992 -10.9777 -0.327541
ltibia 35.5213
lfoot -1.03082 -3.35635
ltoes -4.6118e-014
421
root 11.8792 17.4661 -27.1261 -176.67 -9.43286 -167.876
lowerback -2.44093 1.72006 -3.84238
upperback -0.224786 2.38431 0.871601
thorax 0.943021 1.17509 3.12201
lowerneck -15.8641 5.1271 0.357547
upperneck 24.187 1.73634 14.8246
head 10.2545 2.02301 5.3991
rclavicle 1.2921e-014 -9.54166e-015
rhumerus -95.2708 36.7135 -128.591
rradius 85.1733
rwrist 19.1699
rhand -49.3345 -7.76723
rfingers 7.12502
rthumb -21.9503 -36.5419
lclavicle 1.2921e-014 -9.54166e-015
lhumerus -77.0573 -43.1688 113.231
lradius 81.3974
lwrist -38.598
lhand -38.7762 -3.57034
lfingers 7.12502
lthumb -11.7878 26.0779
rfemur 323.838 -221.269 20.1947
rtibia 30.4288
rfoot -46.3639 -51.6629
rtoes -2.03555e-013
lfemur -46.496 -11.345 -0.756287
ltibia 36.7022
lfoot -1.16823 -2.85163
ltoes 6.36111e-015
422
root 11.8292 17.4804 -27.3596 -176.716 -9.33933 -168.378
lowerback -2.41645 1.72906 -4.24013
upperback -0.23181 2.40739 0.709515
thorax 0.910827 1.18603 3.17765
lowerneck -15.7856 5.23081 0.332539
upperneck 24.3555 1.86604 14.8122
head 10.2866 2.07684 5.42058
rclavicle 3.26007e-014 5.56597e-014
rhumerus -94.8964 36.3953 -128.275
rradius 84.9744
rwrist 19.5165
rhand -49.4081 -7.65365
rfingers 7.12502
rthumb -22.0208 -36.42
lclavicle 3.26007e-014 5.56597e-014
lhumerus -77.3296 -43.5195 113.511
lradius 81.4567
lwrist -37.9636
lhand -38.7926 -3.61519
lfingers 7.12502
lthumb -11.8037 26.0322
rfemur 323.717 -218.773 19.8979
rtibia 30.0605
rfoot -43.2816 -53.1351
rtoes 9.22361e-014
lfemur -46.2157 -11.7471 -1.49837
ltibia 37.8214
lfoot -1.35254 -2.53014
ltoes -2.46493e-014
423
root 11.7778 17.4929 -27.5938 -176.858 -9.19428 -168.827
lowerback -2.39555 1.74218 -4.56778
upperback -0.172694 2.43501 0.558125
thorax 0.950564 1.19646 3.20656
lowerneck -15.7515 5.34013 0.359592
upperneck 24.5646 1.99098 14.7575
head 10.345 2.13048 5.42147
rclavicle -5.42682e-014 -3.18055e-014
rhumerus -94.5276 36.1749 -127.967
rradius 84.9064
rwrist 19.6614
rhand -49.4886 -7.45115
rfingers 7.12502
rthumb -22.0981 -36.2084
lclavicle -5.42682e-014 -3.18055e-014
lhumerus -77.5855 -43.8356 113.654
lradius 81.7238
lwrist -36.7637
lhand -38.3748 -4.17829
lfingers 7.12502
lthumb -11.4008 25.4918
rfemur 323.338 -216.598 19.5291
rtibia 29.8238
rfoot -40.5118 -55.2
rtoes 2.48083e-013
lfemur -45.7811 -11.9974 -2.25045
ltibia 38.8787
lfoot -1.48935 -2.58669
ltoes 8.90555e-014
424
root 11.7182 17.5019 -27.8318 -177.073 -9.07453 -168.949
lowerback -2.40783 1.69614 -4.54822
upperback -0.172906 2.37327 0.626681
thorax 0.960597 1.16552 3.26523
lowerneck -15.5512 5.50702 0.316719
upperneck 24.8797 2.27497 14.5066
head 10.3926 2.22827 5.38028
rclavicle 2.29596e-014 -6.36111e-015
rhumerus -94.5521 36.1072 -127.713
rradius 84.9891
rwrist 19.6444
rhand -49.5462 -7.01426
rfingers 7.12502
rthumb -22.1534 -35.765
lclavicle 2.29596e-014 -6.36111e-015
lhumerus -77.9482 -43.8425 113.929
lradius 81.8012
lwrist -37.1013
lhand -38.6703 -3.45916
lfingers 7.12502
lthumb -11.6857 26.1949
rfemur 322.639 -214.951 19.2922
rtibia 29.8724
rfoot -37.8879 -57.9678
rtoes 3.18055e-014
lfemur -45.2907 -12.3743 -2.63749
ltibia 39.9769
lfoot -2.21228 -2.41376
ltoes -4.17448e-014
425
root 11.6529 17.51 -28.065 -177.246 -8.95867 -169.271
lowerback -2.39496 1.64073 -4.60444
upperback -0.182172 2.29993 0.603782
thorax 0.949157 1.12893 3.27073
lowerneck -15.4572 5.72033 0.343128
upperneck 25.3153 2.56749 14.2808
head 10.5085 2.34048 5.34924
rclavicle 5.76476e-015 3.81667e-014
rhumerus -94.5568 36.0889 -127.598
rradius 85.1551
rwrist 19.7454
rhand -49.3762 -7.13835
rfingers 7.12502
rthumb -21.9902 -35.9083
lclavicle 5.76476e-015 3.81667e-014
lhumerus -78.1792 -43.8135 113.98
lradius 81.7857
lwrist -37.4817
lhand -38.9683 -3.18237
lfingers 7.12502
lthumb -11.9731 26.4552
rfemur 321.597 -213.813 18.6115
rtibia 30.3663
rfoot -37.0261 -60.8944
rtoes -2.16278e-013
lfemur -44.6211 -12.7158 -3.34221
ltibia 40.9793
lfoot -3.16406 -2.24794
ltoes -6.87795e-014
426
root 11.5792 17.5032 -28.2867 -177.449 -8.77933 -169.802
lowerback -2.26581 1.64941 -4.65196
upperback -0.1923 2.30642 0.452716
thorax 0.870098 1.13375 3.1371
lowerneck -15.3638 5.87616 0.566382
upperneck 25.7366 2.78682 13.8521
head 10.6384 2.4153 5.20092
rclavicle -1.98785e-014 5.24792e-014
rhumerus -94.4305 35.9382 -127.4
rradius 85.2951
rwrist 19.9782
rhand -49.1072 -7.11107
rfingers 7.12502
rthumb -21.732 -35.9112
lclavicle -1.98785e-014 5.24792e-014
lhumerus -78.6723 -43.957 114.233
lradius 82.1867
lwrist -36.266
lhand -38.4168 -3.61984
lfingers 7.12502
lthumb -11.4413 26.048
rfemur 320.159 -212.623 17.6456
rtibia 31.4531
rfoot -36.2015 -64.0541
rtoes 2.8943e-013
lfemur -43.9763 -13.1545 -4.2359
ltibia 41.9069
lfoot -4.16764 -1.96185
ltoes 7.89175e-014
427
root 11.5059 17.5175 -28.5077 -177.591 -8.55034 -170.369
lowerback -2.19416 1.64448 -4.76232
upperback -0.230961 2.29724 0.330135
thorax 0.791625 1.13071 3.06915
lowerneck -15.2318 6.01869 0.534242
upperneck 26.1218 2.99505 13.6589
head 10.7366 2.48098 5.1766
rclavicle 2.57426e-014 -1.11319e-014
rhumerus -94.4116 35.9463 -127.342
rradius 85.4688
rwrist 19.9573
rhand -48.9751 -6.96748
rfingers 7.12502
rthumb -21.6051 -35.7822
lclavicle 2.57426e-014 -1.11319e-014
lhumerus -79.0428 -44.0653 114.303
lradius 82.3415
lwrist -36.1084
lhand -38.3297 -3.60331
lfingers 7.12502
lthumb -11.3572 26.0692
rfemur 318.439 -211.756 16.6026
rtibia 33.1877
rfoot -35.8971 -67.7057
rtoes 3.33958e-013
lfemur -43.0888 -13.5566 -5.16059
ltibia 42.5501
lfoot -5.20903 -1.61585
ltoes -8.07066e-014
